<?xml version="1.0" encoding="utf-8"?>
<!-- Generator: Adobe Illustrator 19.1.0, SVG Export Plug-In . SVG Version: 6.00 Build 0)  -->
<svg version="1.1" id="Capa_1" xmlns="http://www.w3.org/2000/svg" xmlns:xlink="http://www.w3.org/1999/xlink" x="0px" y="0px"
	 viewBox="0 0 106.6 106.6" style="enable-background:new 0 0 106.6 106.6;" xml:space="preserve">
<style type="text/css">
	.st0{fill:#FFFFFF;}
</style>
<path class="st0" d="M103,21L70.7,53.3L103,85.6c4.8,4.8,4.8,12.6,0,17.4c-2.4,2.4-5.5,3.6-8.7,3.6c-3.1,0-6.3-1.2-8.7-3.6
	L53.3,70.7L21,103c-2.4,2.4-5.6,3.6-8.7,3.6c-3.1,0-6.3-1.2-8.7-3.6c-4.8-4.8-4.8-12.6,0-17.4l32.3-32.3L3.6,21
	c-4.8-4.8-4.8-12.6,0-17.4c4.8-4.8,12.6-4.8,17.4,0l32.3,32.3L85.6,3.6c4.8-4.8,12.6-4.8,17.4,0C107.8,8.4,107.8,16.2,103,21L103,21
	z"/>
</svg>
