<svg xmlns="http://www.w3.org/2000/svg" viewBox="0 0 85.47 85.47"><defs><style>.a{fill:#fff;}</style></defs><title>football</title><circle class="a" cx="42.74" cy="42.74" r="42.74"/><path class="a" d="M67.12,58c0.36-.57.7-1.16,1-1.76L68.25,56q0.45-.87.85-1.77l0.09-.19c0.27-.62.51-1.26,0.74-1.91l0.13-.37c0.22-.65.42-1.31,0.59-2l0-.18c0.16-.63.29-1.28,0.4-1.93,0-.12,0-0.24.06-0.35q0.16-1,.26-2c0-.14,0-0.28,0-0.42,0.05-.71.09-1.43,0.09-2.16,0-.07,0-0.13,0-0.2l-2.34,2.28L62,36.51l0.94-10.94,3.42,0.73h0A29,29,0,0,0,61.55,21l-0.05,0q-0.9-.77-1.86-1.48h0A28.75,28.75,0,0,0,53.32,16l-0.09,0c-0.74-.29-1.5-0.56-2.28-0.79h0l0.37,0.29,1.38,2.67L42.57,22.53,32.49,18.11l1.38-2.67,0.78-.33h0q-1.18.34-2.31,0.79h0A28.75,28.75,0,0,0,26,19.36h0a29,29,0,0,0-6.73,6.77l3.12-.56,0.81,11L16,44.95l-2-2.32s0,0.08,0,.11c0,0.72,0,1.43.09,2.13,0,0.14,0,.29,0,0.43,0.06,0.68.14,1.36,0.25,2,0,0.11,0,.22.06,0.33q0.16,0.95.39,1.88l0.05,0.24c0.17,0.66.36,1.31,0.57,2l0.12,0.36c0.22,0.65.47,1.29,0.73,1.92l0,0.06c0.27,0.62.56,1.24,0.87,1.84l0.13,0.25q0.48,0.9,1,1.76l0.14,0.22c0.37,0.58.76,1.16,1.17,1.71l0.25-3,10.88,2.56,5.62,9.44L33.81,70.1q1,0.34,2.11.6l0.08,0q1,0.25,2.11.43h0.06c0.68,0.11,1.37.19,2.07,0.25l0.4,0c0.69,0.05,1.39.08,2.09,0.08s1.38,0,2.06-.08l0.42,0c0.69-.06,1.37-0.14,2-0.24h0c0.69-.11,1.38-0.25,2.05-0.41l0.17,0q1-.25,2.06-0.58L48.87,68.7l5.75-9.31,10.75-2.56L65.75,60h0c0.42-.55.81-1.12,1.18-1.71ZM49.93,54.13H35.24L30.68,40.26l11.94-8.75,12,8.63Z"/><path d="M42.74,9A33.79,33.79,0,1,0,76.52,42.74,33.79,33.79,0,0,0,42.74,9ZM71.4,45.32q-0.09,1-.26,2c0,0.12,0,.24-0.06.35-0.11.65-.25,1.29-0.4,1.93l0,0.18c-0.17.67-.37,1.33-0.59,2l-0.13.37c-0.22.65-.47,1.28-0.74,1.91l-0.09.19q-0.4.9-.85,1.77l-0.11.22c-0.32.6-.66,1.19-1,1.76l-0.18.28c-0.38.58-.77,1.15-1.18,1.71l-0.38-3.19L54.62,59.38,48.87,68.7l2.69,1.42c-0.67.22-1.35,0.42-2,.59l-0.17,0c-0.68.16-1.36,0.3-2.05,0.41h0c-0.67.11-1.35,0.18-2,.24l-0.42,0c-0.68,0-1.37.08-2.06,0.08s-1.4,0-2.09-.08l-0.4,0c-0.7-.06-1.39-0.14-2.07-0.25H38.12C37.41,71,36.7,70.89,36,70.72l-0.08,0c-0.64-.16-1.26-0.34-1.88-0.54l-0.22-.07,2.54-1.27-5.62-9.44L19.87,56.82l-0.25,3-0.21-.28c-0.33-.46-0.66-0.93-1-1.41l-0.14-.22q-0.54-.86-1-1.76l-0.13-.25c-0.31-.6-0.61-1.21-0.87-1.84l0-.06c-0.27-.63-0.51-1.27-0.73-1.92l-0.12-.36c-0.21-.64-0.41-1.3-0.57-2l-0.05-.24q-0.23-.93-0.39-1.88c0-.11,0-0.22-0.06-0.33-0.11-.67-0.19-1.35-0.25-2,0-.14,0-0.29,0-0.43C14,44.17,14,43.46,14,42.74c0,0,0-.08,0-0.11l2,2.32,7.19-8.37-0.81-11-3.11.56,0.15-.2q0.54-.75,1.13-1.46l0.29-.35c0.47-.55.95-1.08,1.45-1.59l0.22-.22q0.66-.65,1.36-1.26l0.43-.37c0.55-.46,1.1-0.9,1.68-1.32h0a28.79,28.79,0,0,1,4.67-2.73q0.82-.38,1.67-0.71h0q1.13-.44,2.31-0.79h0l-0.78.33-1.37,2.67,10.08,4.42L52.7,18.11l-1.37-2.67L51,15.15h0q1.16,0.35,2.28.79l0.09,0a28.76,28.76,0,0,1,6.31,3.48h0q1,0.7,1.86,1.48l0.05,0a29,29,0,0,1,4.8,5.33h0l-3.42-.73L62,36.51l7.19,8.31,2.34-2.28c0,0.07,0,.13,0,0.2,0,0.73,0,1.44-.09,2.16C71.42,45,71.41,45.18,71.4,45.32Z"/><polygon points="30.68 40.26 35.24 54.13 49.93 54.13 54.62 40.13 42.62 31.51 30.68 40.26"/></svg>