<svg xmlns="http://www.w3.org/2000/svg" viewBox="0 0 20 20"><defs><style>.a{fill:#fff;}</style></defs><title>indicador</title><path class="a" d="M10,0A10,10,0,1,0,20,10,10,10,0,0,0,10,0ZM10,17.9A7.9,7.9,0,1,1,17.9,10,7.9,7.9,0,0,1,10,17.9Z"/><path d="M10,2.1A7.9,7.9,0,1,0,17.9,10,7.9,7.9,0,0,0,10,2.1Zm6.7,8.5q0,0.24-.06.48v0.08c0,0.15-.06.3-0.09,0.45v0c0,0.16-.09.31-0.14,0.46l0,0.09c-0.05.15-.11,0.3-0.17,0.45l0,0q-0.09.21-.2,0.41l0,0.05c-0.08.14-.16,0.28-0.24,0.41l0,0.07c-0.09.14-.18,0.27-0.28,0.4l-0.09-.74-2.51.6-1.34,2.18,0.63,0.33-0.48.14h0l-0.48.1h0l-0.48.06h-0.1l-0.48,0-0.49,0H9.42l-0.48-.06h0l-0.49-.1h0L8,16.41l-0.05,0,0.59-.3L7.2,13.89l-2.54-.6L4.6,14l0-.07L4.32,13.6l0-.05q-0.13-.2-0.24-0.41l0-.06c-0.07-.14-0.14-0.28-0.2-0.43h0c-0.06-.15-0.12-0.3-0.17-0.45l0-.08c0-.15-0.09-0.3-0.13-0.46V11.59q-0.05-.22-0.09-0.44V11.07c0-.16,0-0.31-0.06-0.47V10.5c0-.16,0-0.33,0-0.5v0l0.48,0.54,1.68-2L5.24,6l-0.73.13,0,0,0.26-.34,0.07-.08,0.34-.37,0.05-.05,0.32-.29,0.1-.09,0.39-.31h0A6.73,6.73,0,0,1,7.17,3.9l0.39-.17h0l0.54-.18h0l-0.18.08-0.32.62,2.36,1,2.37-1L12,3.62l-0.09-.07,0.53,0.18h0a6.72,6.72,0,0,1,1.48.81h0L14.38,4.9h0a6.78,6.78,0,0,1,1.12,1.24h0L14.72,6,14.5,8.54l1.68,1.94L16.73,10s0,0,0,0c0,0.17,0,.34,0,0.5v0.1Z"/><polygon points="7.18 9.42 8.25 12.66 11.68 12.66 12.78 9.39 9.97 7.38 7.18 9.42"/></svg>