<svg xmlns="http://www.w3.org/2000/svg" viewBox="0 0 100 100"><title>twitter</title><path d="M50,0a50,50,0,1,0,50,50A50,50,0,0,0,50,0h0ZM76.19,41c0,0.5,0,1,0,1.52,0,15.56-11.83,33.49-33.48,33.49a33.25,33.25,0,0,1-18-5.3,22.7,22.7,0,0,0,2.8.17,23.61,23.61,0,0,0,14.62-5,11.76,11.76,0,0,1-11-8.16,12.44,12.44,0,0,0,2.21.2,11.47,11.47,0,0,0,3.09-.42A11.79,11.79,0,0,1,27,46V45.83a11.77,11.77,0,0,0,5.34,1.48A11.77,11.77,0,0,1,28.7,31.6,33.37,33.37,0,0,0,53,43.89a12,12,0,0,1-.3-2.68,11.76,11.76,0,0,1,20.35-8,23.77,23.77,0,0,0,7.49-2.86,11.83,11.83,0,0,1-5.19,6.51A23.66,23.66,0,0,0,82.06,35,23.65,23.65,0,0,1,76.19,41h0Zm0,0"/></svg>