<svg xmlns="http://www.w3.org/2000/svg" viewBox="0 0 50 50"><defs><style>.a{fill:#fff;}</style></defs><title>twitter_botonera</title><path class="a" d="M48.63,5.76A20.71,20.71,0,0,1,42.1,8.25a10.25,10.25,0,0,0-17.74,7,10.44,10.44,0,0,0,.26,2.34A29.09,29.09,0,0,1,3.49,6.89,10.26,10.26,0,0,0,2.1,12c0,3.55,1.31,6.7,4.06,8.54C4.47,20.52,4,20.06,1,19.29v0.12c0,5,4,9.13,8.73,10.06a8.21,8.21,0,0,1-2.44.36,9.47,9.47,0,0,1-1.8-.18,10.33,10.33,0,0,0,9.64,7.11A20.48,20.48,0,0,1,2.42,41.17,19.55,19.55,0,0,1,0,41a29,29,0,0,0,15.73,4.62C34.59,45.63,44.9,30,44.9,16.45c0-.44,0-0.89,0-1.33A20.62,20.62,0,0,0,50,9.81a20.62,20.62,0,0,1-5.9,1.61A10.31,10.31,0,0,0,48.63,5.76Z"/></svg>